<svg xmlns:xlink="http://www.w3.org/1999/xlink" xmlns="http://www.w3.org/2000/svg" version="1.1"
     viewBox="0.0 0.0 960.0 720.0" fill="none" stroke="none" stroke-linecap="square" stroke-miterlimit="10">
    <clipPath id="p.0">
        <path d="m0 0l960.0 0l0 720.0l-960.0 0l0 -720.0z" clip-rule="nonzero"/>
    </clipPath>
    <g clip-path="url(#p.0)">
        <path fill="#000000" fill-opacity="0.0" d="m0 0l960.0 0l0 720.0l-960.0 0z" fill-rule="evenodd"/>
        <g filter="url(#shadowFilter-p.1)">
            <use xlink:href="#p.1" transform="matrix(1.0 0.0 0.0 1.0 -0.4185388520007997 5.985384242741142)"/>
        </g>
        <defs>
            <filter id="shadowFilter-p.1" filterUnits="userSpaceOnUse">
                <feGaussianBlur in="SourceAlpha" stdDeviation="6.5" result="blur"/>
                <feComponentTransfer in="blur" color-interpolation-filters="sRGB">
                    <feFuncR type="linear" slope="0" intercept="0.0"/>
                    <feFuncG type="linear" slope="0" intercept="0.0"/>
                    <feFuncB type="linear" slope="0" intercept="0.0"/>
                    <feFuncA type="linear" slope="0.5" intercept="0"/>
                </feComponentTransfer>
            </filter>
        </defs>
        <g id="p.1">
            <path fill="#ffffff"
                  d="m96.0 135.89532l0 0c0 -61.857132 50.14511 -112.00224 112.00224 -112.00224l543.9955 0c29.704834 0 58.193054 11.800203 79.19757 32.804695c21.004456 21.004498 32.804688 49.492702 32.804688 79.19754l0 447.99554c0 61.857117 -50.14508 112.0022 -112.00226 112.0022l-543.9955 0l0 0c-61.857132 0 -112.00224 -50.14508 -112.00224 -112.0022z"
                  fill-rule="evenodd"/>
        </g>
        <g filter="url(#shadowFilter-p.2)">
            <use xlink:href="#p.2" transform="matrix(1.0 0.0 0.0 1.0 4.145188058768045 2.7959644387713256)"/>
        </g>
        <defs>
            <filter id="shadowFilter-p.2" filterUnits="userSpaceOnUse">
                <feGaussianBlur in="SourceAlpha" stdDeviation="2.0" result="blur"/>
                <feComponentTransfer in="blur" color-interpolation-filters="sRGB">
                    <feFuncR type="linear" slope="0" intercept="0.0"/>
                    <feFuncG type="linear" slope="0" intercept="0.0"/>
                    <feFuncB type="linear" slope="0" intercept="0.0"/>
                    <feFuncA type="linear" slope="0.5" intercept="0"/>
                </feComponentTransfer>
            </filter>
        </defs>
        <g id="p.2">
            <defs>
                <linearGradient id="p.3" gradientUnits="userSpaceOnUse"
                                gradientTransform="matrix(25.922760492759263 0.0 0.0 25.922760492759263 0.0 0.0)"
                                spreadMethod="pad" x1="5.554969881760553" y1="20.910073760890764" x2="31.47773037451982"
                                y2="20.910073760890764">
                    <stop offset="0.0" stop-color="#03a9f4"/>
                    <stop offset="1.0" stop-color="#f50057"/>
                </linearGradient>
            </defs>
            <path fill="url(#p.3)"
                  d="m316.8078 178.0c-50.509705 0 -91.9384 17.50354 -124.2861 52.510605c-32.347687 34.95363 -48.521545 78.137924 -48.521545 129.55287c0 51.36151 18.48439 94.54581 55.4532 129.55289c36.96881 34.953644 81.21852 52.43045 132.74916 52.43045c19.129211 0 38.849487 -1.977478 59.160828 -5.932495c20.31134 -3.955017 36.72699 -9.5401 49.24695 -16.75531l-7.4152527 -16.75528c-28.371399 11.811554 -62.035553 17.717316 -100.99252 17.717316c-44.59897 0 -82.83052 -15.659668 -114.694626 -46.978943c-31.86409 -31.372772 -47.796143 -69.3728 -47.796143 -114.00012c0 -44.680786 13.702087 -82.44031 41.106293 -113.27861c27.40419 -30.891739 62.734116 -46.337616 105.98976 -46.337616c36.324005 0 74.286865 5.905777 113.88864 17.71733l6.4480286 -19.721542c-40.62268 -13.14769 -80.73489 -19.721542 -120.33667 -19.721542z"
                  fill-rule="evenodd"/>
            <defs>
                <linearGradient id="p.4" gradientUnits="userSpaceOnUse"
                                gradientTransform="matrix(25.922760492759263 0.0 0.0 25.922760492759263 0.0 0.0)"
                                spreadMethod="pad" x1="5.554969881760553" y1="20.910073760890764" x2="31.47773037451982"
                                y2="20.910073760890764">
                    <stop offset="0.0" stop-color="#03a9f4"/>
                    <stop offset="1.0" stop-color="#f50057"/>
                </linearGradient>
            </defs>
            <path fill="url(#p.4)"
                  d="m609.49097 203.17302c28.049011 0 50.563416 6.493683 67.543274 19.481033c17.03357 12.933899 25.550415 31.960648 25.550415 57.08023c0 25.119568 -8.248169 47.21945 -24.744385 66.29965c-16.496277 19.026733 -32.02533 28.5401 -46.58716 28.5401c-22.783081 0 -47.366272 -0.82839966 -73.74951 -2.4852295l0 -166.99173c19.827698 -1.2826996 37.15686 -1.924057 51.987366 -1.924057zm2.9822388 -21.244751c-21.11737 0 -47.366272 1.1490936 -78.746765 3.4472656l0 350.73877l23.77716 0l0 -144.78497c26.38324 1.977478 55.775574 2.9662476 88.177 2.9662476c45.190063 61.73001 73.480896 98.50079 84.87244 110.31235c11.391541 11.811554 23.34729 20.603424 35.86725 26.37558c12.573669 5.718689 28.935608 8.738403 49.085754 9.059082l0.48364258 -15.713135c-25.416077 -2.992981 -48.19922 -15.151886 -68.349304 -36.476807c-5.26593 -5.932495 -16.899292 -20.469818 -34.900085 -43.611877c-18.000793 -23.14206 -33.099976 -43.077362 -45.297485 -59.80597c15.528992 -10.849518 29.553528 -25.46695 42.073486 -43.852356c12.573669 -18.385406 18.860535 -38.267273 18.860535 -59.64563c0 -31.47966 -10.907959 -55.850998 -32.723877 -73.11401c-21.762146 -17.263031 -49.48871 -25.894547 -83.17975 -25.894547z"
                  fill-rule="evenodd"/>
        </g>
    </g>
</svg>
