<svg version="1.1" viewBox="0.0 0.0 512.0 512.0" fill="none" stroke="none" stroke-linecap="square" stroke-miterlimit="10" xmlns:xlink="http://www.w3.org/1999/xlink" xmlns="http://www.w3.org/2000/svg"><clipPath id="p.0"><path d="m0 0l512.0 0l0 512.0l-512.0 0l0 -512.0z" clip-rule="nonzero"/></clipPath><g clip-path="url(#p.0)"><path fill="#000000" fill-opacity="0.0" d="m0 0l512.0 0l0 512.0l-512.0 0z" fill-rule="evenodd"/><g filter="url(#shadowFilter-p.1)"><use xlink:href="#p.1" transform="matrix(1.0 0.0 0.0 1.0 0.0 2.0)"/></g><defs><filter id="shadowFilter-p.1" filterUnits="userSpaceOnUse"><feGaussianBlur in="SourceAlpha" stdDeviation="2.0" result="blur"/><feComponentTransfer in="blur" color-interpolation-filters="sRGB"><feFuncR type="linear" slope="0" intercept="0.0"/><feFuncG type="linear" slope="0" intercept="0.0"/><feFuncB type="linear" slope="0" intercept="0.0"/><feFuncA type="linear" slope="0.5" intercept="0"/></feComponentTransfer></filter></defs><g id="p.1"><path fill="#ffffff" d="m6.4251966 89.61846l0 0c0 -45.946373 37.24689 -83.19327 83.19327 -83.19327l332.76306 0l0 0c22.06424 0 43.224762 8.764979 58.826538 24.366745c15.601746 15.601763 24.36673 36.7623 24.36673 58.826523l0 332.76306c0 45.94638 -37.246887 83.19327 -83.19327 83.19327l-332.76306 0c-45.946373 0 -83.19327 -37.246887 -83.19327 -83.19327z" fill-rule="evenodd"/></g><g filter="url(#shadowFilter-p.2)"><use xlink:href="#p.2" transform="matrix(1.0 0.0 0.0 1.0 0.15700787321476173 2.9958886975065617)"/></g><defs><filter id="shadowFilter-p.2" filterUnits="userSpaceOnUse"><feGaussianBlur in="SourceAlpha" stdDeviation="2.5" result="blur"/><feComponentTransfer in="blur" color-interpolation-filters="sRGB"><feFuncR type="linear" slope="0" intercept="0.0"/><feFuncG type="linear" slope="0" intercept="0.0"/><feFuncB type="linear" slope="0" intercept="0.0"/><feFuncA type="linear" slope="0.53" intercept="0"/></feComponentTransfer></filter></defs><g id="p.2"><defs><linearGradient id="p.3" gradientUnits="userSpaceOnUse" gradientTransform="matrix(21.79819839360632 0.0 0.0 21.79819839360632 0.0 0.0)" spreadMethod="pad" x1="0.8470988239487387" y1="17.511929362504258" x2="22.645297217555054" y2="17.511929362504258"><stop offset="0.0" stop-color="#03a9f4"/><stop offset="1.0" stop-color="#f50057"/></linearGradient></defs><path fill="url(#p.3)" d="m144.036 130.19455c-36.698494 0 -66.80159 12.130127 -90.30926 36.390366c-23.50767 24.22528 -35.261513 54.061188 -35.261513 89.507706c0 35.446533 13.375055 65.24747 40.125168 89.40283c26.786964 24.155365 58.787613 36.233063 96.00195 36.233063c13.55928 0 27.615982 -1.3458252 42.170105 -4.0375366c14.554138 -2.726654 28.27922 -7.6381226 41.175278 -14.734436l-10.390533 -22.494904c-22.881302 9.088867 -47.199585 13.63327 -72.95485 13.63327c-28.62925 0 -53.187027 -9.595734 -73.67335 -28.78717c-20.449463 -19.191467 -30.674198 -42.507874 -30.674198 -69.94922c0 -27.44133 8.750896 -50.54799 26.252697 -69.31996c17.501793 -18.80693 40.014633 -28.210403 67.5385 -28.210403c24.207748 0 51.768463 4.404602 82.68216 13.213791l8.732483 -25.536179c-33.050766 -10.207474 -63.52231 -15.311218 -91.41464 -15.311218z" fill-rule="evenodd"/><defs><linearGradient id="p.4" gradientUnits="userSpaceOnUse" gradientTransform="matrix(21.79819839360632 0.0 0.0 21.79819839360632 0.0 0.0)" spreadMethod="pad" x1="0.8470988239487387" y1="17.511929362504258" x2="22.645297217555054" y2="17.511929362504258"><stop offset="0.0" stop-color="#03a9f4"/><stop offset="1.0" stop-color="#f50057"/></linearGradient></defs><path fill="url(#p.4)" d="m344.73248 160.08289c17.64917 0 31.521667 3.6705017 41.61743 11.01149c10.095764 7.3410034 15.143646 18.265106 15.143646 32.77231c0 14.472244 -5.0294495 27.249084 -15.088379 38.33049c-10.022064 11.046448 -18.938782 16.569672 -26.750122 16.569672c-15.47525 0 -29.974121 -0.40200806 -43.49655 -1.2060242l0 -96.63896c9.027252 -0.5593109 18.55191 -0.838974 28.573975 -0.838974zm2.0449524 -27.318985c-14.664673 0 -35.022034 0.9088898 -61.072052 2.726654l0 242.35774l30.453125 0l0 -94.1745c13.190826 0.94384766 29.789886 1.4157715 49.79721 1.4157715c29.771484 38.767456 48.765533 62.223694 56.982147 70.36868c8.216644 8.14502 17.059662 14.297485 26.529053 18.457367c9.469391 4.1249084 23.931396 6.3272095 43.386017 6.6068726l0.7737732 -23.019257c-20.044159 -2.2722168 -36.34845 -9.753021 -48.912903 -22.442474c-3.4635315 -3.7404175 -11.348541 -13.126404 -23.65506 -28.157959c-12.269684 -15.066528 -21.149567 -26.200378 -26.639587 -33.40152c7.442871 -4.963928 15.788483 -13.912964 25.036774 -26.847076c9.248322 -12.934143 13.872467 -27.07431 13.872467 -42.42047c0 -22.75708 -8.235046 -40.358 -24.70514 -52.802734c-16.470123 -12.444733 -37.08539 -18.667099 -61.845825 -18.667099z" fill-rule="evenodd"/></g></g></svg>